<svg viewBox="0 0 32 32" xmlns="http://www.w3.org/2000/svg">
    <g clip-path="url(#clip0)">
        <path
                d="M31.523 19.87c-2.137 8.572-10.82 13.788-19.393 11.651C3.56 29.384-1.657 20.702.48 12.131 2.617 3.558 11.3-1.659 19.871.478c8.573 2.137 13.79 10.82 11.652 19.392z"
                fill="#1D8200"
        />
        <path
                d="M3.392 12.857h0c1.736-6.965 8.79-11.204 15.753-9.468h0c6.965 1.737 11.204 8.791 9.467 15.756-1.736 6.963-8.79 11.202-15.756 9.465-6.963-1.736-11.201-8.79-9.464-15.753z"
                stroke="#fff"
                stroke-opacity=".24"
                stroke-width="6"
        />
        <path
                d="M31.046 10.564L.206 18.565a15.94 15.94 0 01.273-6.434C2.616 3.56 11.298-1.659 19.87.48c5.37 1.338 9.423 5.245 11.177 10.085z"
                fill="#fff"
                opacity=".3"
        />
        <g filter="url(#filter0_di)">
            <path
                    d="M28.61 19.145c-1.736 6.964-8.79 11.202-15.756 9.466-6.963-1.737-11.202-8.79-9.465-15.755C5.125 5.892 12.18 1.654 19.143 3.39c6.966 1.736 11.204 8.791 9.468 15.756z"
                    fill="#1D8101"
            />
        </g>
        <path
                d="M21.635 18.977c0 1.088-.356 1.974-1.066 2.659-.71.684-1.688 1.127-2.933 1.33V24.5h-2.845v-1.506c-.984-.136-1.798-.423-2.443-.86-.64-.436-1.108-.958-1.408-1.564a4.428 4.428 0 01-.44-1.935h3.099c0 .56.215 1.01.645 1.349.437.332 1.046.498 1.828.498.847 0 1.463-.124 1.848-.371.384-.248.577-.63.577-1.144 0-.3-.102-.55-.303-.753-.196-.202-.483-.371-.86-.508-.379-.143-.88-.287-1.506-.43a16.193 16.193 0 01-2.483-.792c-.704-.3-1.3-.73-1.79-1.29-.482-.561-.723-1.278-.723-2.151 0-1.043.336-1.903 1.007-2.581.671-.684 1.656-1.108 2.952-1.27V7.5h2.845v1.77c1.167.228 2.047.693 2.64 1.397.6.698.9 1.578.9 2.64h-3.1c0-.424-.172-.776-.518-1.056-.339-.287-.883-.43-1.633-.43-1.329 0-1.994.414-1.994 1.241 0 .28.101.522.303.724.202.195.518.368.949.518.43.143 1.003.283 1.72.42 1.48.3 2.636.782 3.47 1.447.841.658 1.262 1.594 1.262 2.806z"
                fill="#fff"
        />
    </g>
    <defs>
        <clipPath id="clip0">
            <path fill="#fff" d="M0 0h32v32H0z" />
        </clipPath>
        <filter id="filter0_di" x="2" y="3" width="27" height="28" filterUnits="userSpaceOnUse" color-interpolation-filters="sRGB">
            <feFlood flood-opacity="0" result="BackgroundImageFix" />
            <feColorMatrix in="SourceAlpha" values="0 0 0 0 0 0 0 0 0 0 0 0 0 0 0 0 0 0 127 0" />
            <feOffset dx="-1" dy="1" />
            <feColorMatrix values="0 0 0 0 1 0 0 0 0 1 0 0 0 0 1 0 0 0 0.32 0" />
            <feBlend in2="BackgroundImageFix" result="effect1_dropShadow" />
            <feBlend in="SourceGraphic" in2="effect1_dropShadow" result="shape" />
            <feColorMatrix in="SourceAlpha" values="0 0 0 0 0 0 0 0 0 0 0 0 0 0 0 0 0 0 127 0" result="hardAlpha" />
            <feOffset dx="-1" dy="2" />
            <feGaussianBlur stdDeviation="1" />
            <feComposite in2="hardAlpha" operator="arithmetic" k2="-1" k3="1" />
            <feColorMatrix values="0 0 0 0 0 0 0 0 0 0 0 0 0 0 0 0 0 0 0.16 0" />
            <feBlend in2="shape" result="effect2_innerShadow" />
        </filter>
    </defs>
</svg>
